<?xml version="1.0" encoding="UTF-8" standalone="no"?><!DOCTYPE svg PUBLIC "-//W3C//DTD SVG 1.1//EN" "http://www.w3.org/Graphics/SVG/1.1/DTD/svg11.dtd"><svg width="100%" height="100%" viewBox="0 0 500 500" version="1.1" xmlns="http://www.w3.org/2000/svg" xmlns:xlink="http://www.w3.org/1999/xlink" xml:space="preserve" xmlns:serif="http://www.serif.com/" style="fill-rule:evenodd;clip-rule:evenodd;stroke-linejoin:round;stroke-miterlimit:2;"><path id="ei23" d="M177.192,488.381c2.648,-2.989 16.824,-16.653 18.02,-40.394c0.768,-15.457 -2.733,-31.427 -10.846,-47.738c14.689,7.173 28.609,9.821 41.675,7.857c13.066,-1.965 24.851,-8.113 35.185,-18.447c16.567,-16.567 22.801,-37.319 18.958,-62.341c-3.501,-24.168 -16.311,-47.397 -38.43,-69.515c-21.52,-21.521 -43.553,-34.16 -66.099,-38.089c-24.253,-3.928 -47.226,2.989 -69.173,20.838l38.429,38.43c20.923,-13.408 42.615,-8.967 65.16,13.578c11.785,11.785 17.934,23.058 18.447,33.989c0.512,10.931 -3.331,20.411 -11.615,28.694c-8.284,8.284 -18.275,11.615 -29.89,10.078c-11.614,-1.538 -23.399,-8.199 -35.184,-19.984l-22.973,-22.972l-28.865,28.865l26.645,26.644c14.091,14.091 21.862,26.816 23.399,38.259c1.538,11.444 -2.135,21.606 -10.931,30.402c-8.796,8.797 -19.642,12.469 -32.366,11.017c-20.752,-2.306 -34.758,-18.019 -40.394,-23.656c-84.204,-84.204 -69.942,-225.711 14.603,-310.256c84.546,-84.546 297.276,-159.783 376.441,-80.617c23.57,23.57 24.083,52.606 10.59,66.099c-8.028,8.028 -16.824,12.554 -26.56,13.579c-9.735,1.024 -20.922,-1.281 -33.818,-7.003l-58.157,-25.876c-10.76,-4.783 -20.923,-8.284 -30.573,-10.419c-28.694,-6.32 -55.339,2.904 -79.934,27.499l-35.099,35.099l154.488,154.488l34.16,-34.16l-117.169,-117.168l5.978,-5.978c6.149,-6.149 12.981,-9.224 20.582,-9.48c7.6,-0.256 17.08,2.221 28.438,7.259l59.096,26.132c24.851,11.017 46.628,15.543 65.416,13.835c12.042,-1.11 23.827,-5.38 35.27,-12.895c-7.43,91.292 -58.242,200.176 -113.154,255.088c-53.716,53.716 -129.637,79.08 -199.75,69.259Z" style="fill:#fff;"/></svg>