<?xml version="1.0" encoding="UTF-8"?>
<svg width="500px" height="500px" viewBox="0 0 200 500" version="1.1" xmlns="http://www.w3.org/2000/svg" xmlns:xlink="http://www.w3.org/1999/xlink"> 
    <g fill-opacity="0.2">
    <path d="m346.75 445.89c-0.2-3.3 0.1-19.6-13.1-34.2-8.6-9.5-20-16.8-34.3-21.6 12.8-4.4 22.5-11 29-19.8s9.8-19.3 9.8-31.4c0-19.4-8.5-35.2-25.4-47.6-16.2-12.1-37.3-18.2-63.2-18.2-25.2 0-45.5 5.5-61 16.4-16.5 11.9-25.9 29.4-28.3 52.7h45c4.4-20.1 19.7-30.2 46.1-30.2 13.8 0 24 3 30.7 9.1s10 13.9 10 23.6-3.9 17.5-11.6 23.4-18.5 8.9-32.3 8.9h-26.9v33.8h31.2c16.5 0 28.5 2.9 36.1 8.7s11.4 13.9 11.4 24.2-4.2 18.8-12.5 25.4c-13.5 10.8-30.9 9.8-37.5 9.8-98.6 0-173.1-91.2-173.1-190.2s80.5-267.6 173.2-267.6c27.6 0 44.9 16.7 44.9 32.5 0 9.4-2.5 17.2-7.6 23.5s-13 11.5-23.9 15.7l-49.2 18.9c-9.1 3.5-17.1 7.4-24 11.8-20.5 13.1-30.7 34.1-30.7 62.9v41.1h180.9v-40h-137.2v-7c0-7.2 2.2-13 6.5-17.6s11.3-8.7 20.9-12.4l49.9-19.3c21-8.1 36.4-18.2 46.4-30.2 6.4-7.7 10.8-17.1 13.1-28.2 49.1 57.8 83.1 151.3 83.1 215.6 0 62.9-29.6 122.2-76.4 157.5z" fill="#ddd" fill-rule="nonzero" transform="rotate(45), translate(-100,-50)"></path>
    </g>
</svg>