<?xml version="1.0" encoding="UTF-8" standalone="no"?>
<!DOCTYPE svg PUBLIC "-//W3C//DTD SVG 1.1//EN" "http://www.w3.org/Graphics/SVG/1.1/DTD/svg11.dtd">
<svg width="100%" height="100%" viewBox="0 0 820 1000" version="1.1" xmlns="http://www.w3.org/2000/svg" xmlns:xlink="http://www.w3.org/1999/xlink" xml:space="preserve" xmlns:serif="http://www.serif.com/" style="fill-rule:evenodd;clip-rule:evenodd;stroke-linejoin:round;stroke-miterlimit:2;">
    <g id="tiles" opacity="0.05">
        <g id="ei23" transform="matrix(1.04891,0.281054,-0.281054,1.04891,-104.834,-427.611)">
            <path d="M496.7,495.9C496.5,492.6 496.8,476.3 483.6,461.7C475,452.2 463.6,444.9 449.3,440.1C462.1,435.7 471.8,429.1 478.3,420.3C484.8,411.5 488.1,401 488.1,388.9C488.1,369.5 479.6,353.7 462.7,341.3C446.5,329.2 425.4,323.1 399.5,323.1C374.3,323.1 354,328.6 338.5,339.5C322,351.4 312.6,368.9 310.2,392.2L355.2,392.2C359.6,372.1 374.9,362 401.3,362C415.1,362 425.3,365 432,371.1C438.7,377.2 442,385 442,394.7C442,404.4 438.1,412.2 430.4,418.1C422.7,424 411.9,427 398.1,427L371.2,427L371.2,460.8L402.4,460.8C418.9,460.8 430.9,463.7 438.5,469.5C446.1,475.3 449.9,483.4 449.9,493.7C449.9,504 445.7,512.5 437.4,519.1C423.9,529.9 406.5,528.9 399.9,528.9C301.3,528.9 226.8,437.7 226.8,338.7C226.8,239.7 307.3,71.1 400,71.1C427.6,71.1 444.9,87.8 444.9,103.6C444.9,113 442.4,120.8 437.3,127.1C432.2,133.4 424.3,138.6 413.4,142.8L364.2,161.7C355.1,165.2 347.1,169.1 340.2,173.5C319.7,186.6 309.5,207.6 309.5,236.4L309.5,277.5L490.4,277.5L490.4,237.5L353.2,237.5L353.2,230.5C353.2,223.3 355.4,217.5 359.7,212.9C364,208.3 371,204.2 380.6,200.5L430.5,181.2C451.5,173.1 466.9,163 476.9,151C483.3,143.3 487.7,133.9 490,122.8C539.1,180.6 573.1,274.1 573.1,338.4C573.1,401.3 543.5,460.6 496.7,495.9Z" style="fill:rgb(128,128,128);"/>
        </g>
        <g id="ei231" serif:id="ei23" transform="matrix(1.04891,0.281054,-0.281054,1.04891,-104.834,572.389)">
            <path d="M496.7,495.9C496.5,492.6 496.8,476.3 483.6,461.7C475,452.2 463.6,444.9 449.3,440.1C462.1,435.7 471.8,429.1 478.3,420.3C484.8,411.5 488.1,401 488.1,388.9C488.1,369.5 479.6,353.7 462.7,341.3C446.5,329.2 425.4,323.1 399.5,323.1C374.3,323.1 354,328.6 338.5,339.5C322,351.4 312.6,368.9 310.2,392.2L355.2,392.2C359.6,372.1 374.9,362 401.3,362C415.1,362 425.3,365 432,371.1C438.7,377.2 442,385 442,394.7C442,404.4 438.1,412.2 430.4,418.1C422.7,424 411.9,427 398.1,427L371.2,427L371.2,460.8L402.4,460.8C418.9,460.8 430.9,463.7 438.5,469.5C446.1,475.3 449.9,483.4 449.9,493.7C449.9,504 445.7,512.5 437.4,519.1C423.9,529.9 406.5,528.9 399.9,528.9C301.3,528.9 226.8,437.7 226.8,338.7C226.8,239.7 307.3,71.1 400,71.1C427.6,71.1 444.9,87.8 444.9,103.6C444.9,113 442.4,120.8 437.3,127.1C432.2,133.4 424.3,138.6 413.4,142.8L364.2,161.7C355.1,165.2 347.1,169.1 340.2,173.5C319.7,186.6 309.5,207.6 309.5,236.4L309.5,277.5L490.4,277.5L490.4,237.5L353.2,237.5L353.2,230.5C353.2,223.3 355.4,217.5 359.7,212.9C364,208.3 371,204.2 380.6,200.5L430.5,181.2C451.5,173.1 466.9,163 476.9,151C483.3,143.3 487.7,133.9 490,122.8C539.1,180.6 573.1,274.1 573.1,338.4C573.1,401.3 543.5,460.6 496.7,495.9Z" style="fill:rgb(128,128,128);"/>
        </g>
        <g id="ei232" serif:id="ei23" transform="matrix(0.989424,0.553987,-0.553987,0.989424,340.309,-265.82)">
            <path d="M496.7,495.9C496.5,492.6 496.8,476.3 483.6,461.7C475,452.2 463.6,444.9 449.3,440.1C462.1,435.7 471.8,429.1 478.3,420.3C484.8,411.5 488.1,401 488.1,388.9C488.1,369.5 479.6,353.7 462.7,341.3C446.5,329.2 425.4,323.1 399.5,323.1C374.3,323.1 354,328.6 338.5,339.5C322,351.4 312.6,368.9 310.2,392.2L355.2,392.2C359.6,372.1 374.9,362 401.3,362C415.1,362 425.3,365 432,371.1C438.7,377.2 442,385 442,394.7C442,404.4 438.1,412.2 430.4,418.1C422.7,424 411.9,427 398.1,427L371.2,427L371.2,460.8L402.4,460.8C418.9,460.8 430.9,463.7 438.5,469.5C446.1,475.3 449.9,483.4 449.9,493.7C449.9,504 445.7,512.5 437.4,519.1C423.9,529.9 406.5,528.9 399.9,528.9C301.3,528.9 226.8,437.7 226.8,338.7C226.8,239.7 307.3,71.1 400,71.1C427.6,71.1 444.9,87.8 444.9,103.6C444.9,113 442.4,120.8 437.3,127.1C432.2,133.4 424.3,138.6 413.4,142.8L364.2,161.7C355.1,165.2 347.1,169.1 340.2,173.5C319.7,186.6 309.5,207.6 309.5,236.4L309.5,277.5L490.4,277.5L490.4,237.5L353.2,237.5L353.2,230.5C353.2,223.3 355.4,217.5 359.7,212.9C364,208.3 371,204.2 380.6,200.5L430.5,181.2C451.5,173.1 466.9,163 476.9,151C483.3,143.3 487.7,133.9 490,122.8C539.1,180.6 573.1,274.1 573.1,338.4C573.1,401.3 543.5,460.6 496.7,495.9Z" style="fill:rgb(128,128,128);"/>
        </g>
        <g id="ei233" serif:id="ei23" transform="matrix(0.9221,-0.534843,0.534843,0.9221,72.9549,682.275)">
            <path d="M496.7,495.9C496.5,492.6 496.8,476.3 483.6,461.7C475,452.2 463.6,444.9 449.3,440.1C462.1,435.7 471.8,429.1 478.3,420.3C484.8,411.5 488.1,401 488.1,388.9C488.1,369.5 479.6,353.7 462.7,341.3C446.5,329.2 425.4,323.1 399.5,323.1C374.3,323.1 354,328.6 338.5,339.5C322,351.4 312.6,368.9 310.2,392.2L355.2,392.2C359.6,372.1 374.9,362 401.3,362C415.1,362 425.3,365 432,371.1C438.7,377.2 442,385 442,394.7C442,404.4 438.1,412.2 430.4,418.1C422.7,424 411.9,427 398.1,427L371.2,427L371.2,460.8L402.4,460.8C418.9,460.8 430.9,463.7 438.5,469.5C446.1,475.3 449.9,483.4 449.9,493.7C449.9,504 445.7,512.5 437.4,519.1C423.9,529.9 406.5,528.9 399.9,528.9C301.3,528.9 226.8,437.7 226.8,338.7C226.8,239.7 307.3,71.1 400,71.1C427.6,71.1 444.9,87.8 444.9,103.6C444.9,113 442.4,120.8 437.3,127.1C432.2,133.4 424.3,138.6 413.4,142.8L364.2,161.7C355.1,165.2 347.1,169.1 340.2,173.5C319.7,186.6 309.5,207.6 309.5,236.4L309.5,277.5L490.4,277.5L490.4,237.5L353.2,237.5L353.2,230.5C353.2,223.3 355.4,217.5 359.7,212.9C364,208.3 371,204.2 380.6,200.5L430.5,181.2C451.5,173.1 466.9,163 476.9,151C483.3,143.3 487.7,133.9 490,122.8C539.1,180.6 573.1,274.1 573.1,338.4C573.1,401.3 543.5,460.6 496.7,495.9Z" style="fill:rgb(128,128,128);"/>
        </g>
        <g id="ei234" serif:id="ei23" transform="matrix(0.915288,-0.669409,0.669409,0.915288,-416.282,482.335)">
            <path d="M496.7,495.9C496.5,492.6 496.8,476.3 483.6,461.7C475,452.2 463.6,444.9 449.3,440.1C462.1,435.7 471.8,429.1 478.3,420.3C484.8,411.5 488.1,401 488.1,388.9C488.1,369.5 479.6,353.7 462.7,341.3C446.5,329.2 425.4,323.1 399.5,323.1C374.3,323.1 354,328.6 338.5,339.5C322,351.4 312.6,368.9 310.2,392.2L355.2,392.2C359.6,372.1 374.9,362 401.3,362C415.1,362 425.3,365 432,371.1C438.7,377.2 442,385 442,394.7C442,404.4 438.1,412.2 430.4,418.1C422.7,424 411.9,427 398.1,427L371.2,427L371.2,460.8L402.4,460.8C418.9,460.8 430.9,463.7 438.5,469.5C446.1,475.3 449.9,483.4 449.9,493.7C449.9,504 445.7,512.5 437.4,519.1C423.9,529.9 406.5,528.9 399.9,528.9C301.3,528.9 226.8,437.7 226.8,338.7C226.8,239.7 307.3,71.1 400,71.1C427.6,71.1 444.9,87.8 444.9,103.6C444.9,113 442.4,120.8 437.3,127.1C432.2,133.4 424.3,138.6 413.4,142.8L364.2,161.7C355.1,165.2 347.1,169.1 340.2,173.5C319.7,186.6 309.5,207.6 309.5,236.4L309.5,277.5L490.4,277.5L490.4,237.5L353.2,237.5L353.2,230.5C353.2,223.3 355.4,217.5 359.7,212.9C364,208.3 371,204.2 380.6,200.5L430.5,181.2C451.5,173.1 466.9,163 476.9,151C483.3,143.3 487.7,133.9 490,122.8C539.1,180.6 573.1,274.1 573.1,338.4C573.1,401.3 543.5,460.6 496.7,495.9Z" style="fill:rgb(128,128,128);"/>
        </g>
        <g id="ei235" serif:id="ei23" transform="matrix(0.915288,-0.669409,0.669409,0.915288,398.067,482.335)">
            <path d="M496.7,495.9C496.5,492.6 496.8,476.3 483.6,461.7C475,452.2 463.6,444.9 449.3,440.1C462.1,435.7 471.8,429.1 478.3,420.3C484.8,411.5 488.1,401 488.1,388.9C488.1,369.5 479.6,353.7 462.7,341.3C446.5,329.2 425.4,323.1 399.5,323.1C374.3,323.1 354,328.6 338.5,339.5C322,351.4 312.6,368.9 310.2,392.2L355.2,392.2C359.6,372.1 374.9,362 401.3,362C415.1,362 425.3,365 432,371.1C438.7,377.2 442,385 442,394.7C442,404.4 438.1,412.2 430.4,418.1C422.7,424 411.9,427 398.1,427L371.2,427L371.2,460.8L402.4,460.8C418.9,460.8 430.9,463.7 438.5,469.5C446.1,475.3 449.9,483.4 449.9,493.7C449.9,504 445.7,512.5 437.4,519.1C423.9,529.9 406.5,528.9 399.9,528.9C301.3,528.9 226.8,437.7 226.8,338.7C226.8,239.7 307.3,71.1 400,71.1C427.6,71.1 444.9,87.8 444.9,103.6C444.9,113 442.4,120.8 437.3,127.1C432.2,133.4 424.3,138.6 413.4,142.8L364.2,161.7C355.1,165.2 347.1,169.1 340.2,173.5C319.7,186.6 309.5,207.6 309.5,236.4L309.5,277.5L490.4,277.5L490.4,237.5L353.2,237.5L353.2,230.5C353.2,223.3 355.4,217.5 359.7,212.9C364,208.3 371,204.2 380.6,200.5L430.5,181.2C451.5,173.1 466.9,163 476.9,151C483.3,143.3 487.7,133.9 490,122.8C539.1,180.6 573.1,274.1 573.1,338.4C573.1,401.3 543.5,460.6 496.7,495.9Z" style="fill:rgb(128,128,128);"/>
        </g>
    </g>
</svg>
